solid CATIA STL
  facet normal  1.000000e+000  0.000000e+000  0.000000e+000
    outer loop
      vertex  4.000000e+001  7.105427e-015  2.000000e+001
      vertex  4.000000e+001  0.000000e+000  0.000000e+000
      vertex  4.000000e+001  6.000000e+001  2.000000e+001
    endloop
  endfacet
  facet normal  1.000000e+000  0.000000e+000  0.000000e+000
    outer loop
      vertex  4.000000e+001  6.000000e+001  2.000000e+001
      vertex  4.000000e+001  0.000000e+000  0.000000e+000
      vertex  4.000000e+001  4.000000e+001  0.000000e+000
    endloop
  endfacet
  facet normal  1.000000e+000  -0.000000e+000  0.000000e+000
    outer loop
      vertex  4.000000e+001  6.000000e+001  2.000000e+001
      vertex  4.000000e+001  4.000000e+001  0.000000e+000
      vertex  4.000000e+001  6.000000e+001 -4.000000e+001
    endloop
  endfacet
  facet normal  1.000000e+000  0.000000e+000  0.000000e+000
    outer loop
      vertex  4.000000e+001  6.000000e+001 -4.000000e+001
      vertex  4.000000e+001  4.000000e+001  0.000000e+000
      vertex  4.000000e+001  4.000000e+001 -4.000000e+001
    endloop
  endfacet
  facet normal -1.000000e+000  -0.000000e+000  0.000000e+000
    outer loop
      vertex  0.000000e+000  7.105427e-015  2.000000e+001
      vertex  0.000000e+000  6.000000e+001  2.000000e+001
      vertex  0.000000e+000  0.000000e+000  0.000000e+000
    endloop
  endfacet
  facet normal -1.000000e+000  0.000000e+000  0.000000e+000
    outer loop
      vertex  0.000000e+000  0.000000e+000  0.000000e+000
      vertex  0.000000e+000  6.000000e+001  2.000000e+001
      vertex  0.000000e+000  4.000000e+001  0.000000e+000
    endloop
  endfacet
  facet normal -1.000000e+000  0.000000e+000  0.000000e+000
    outer loop
      vertex  0.000000e+000  6.000000e+001  2.000000e+001
      vertex  0.000000e+000  6.000000e+001 -4.000000e+001
      vertex  0.000000e+000  4.000000e+001  0.000000e+000
    endloop
  endfacet
  facet normal -1.000000e+000  0.000000e+000  0.000000e+000
    outer loop
      vertex  0.000000e+000  4.000000e+001  0.000000e+000
      vertex  0.000000e+000  6.000000e+001 -4.000000e+001
      vertex  0.000000e+000  4.000000e+001 -4.000000e+001
    endloop
  endfacet
  facet normal  0.000000e+000 -1.000000e+000  3.552713e-016
    outer loop
      vertex  0.000000e+000  7.105427e-015  2.000000e+001
      vertex  0.000000e+000  0.000000e+000  0.000000e+000
      vertex  4.000000e+001  7.105427e-015  2.000000e+001
    endloop
  endfacet
  facet normal  0.000000e+000 -1.000000e+000  3.552713e-016
    outer loop
      vertex  4.000000e+001  7.105427e-015  2.000000e+001
      vertex  0.000000e+000  0.000000e+000  0.000000e+000
      vertex  4.000000e+001  0.000000e+000  0.000000e+000
    endloop
  endfacet
  facet normal  -0.000000e+000  0.000000e+000  1.000000e+000
    outer loop
      vertex  4.000000e+001  6.000000e+001  2.000000e+001
      vertex  0.000000e+000  6.000000e+001  2.000000e+001
      vertex  4.000000e+001  7.105427e-015  2.000000e+001
    endloop
  endfacet
  facet normal  0.000000e+000  0.000000e+000  1.000000e+000
    outer loop
      vertex  4.000000e+001  7.105427e-015  2.000000e+001
      vertex  0.000000e+000  6.000000e+001  2.000000e+001
      vertex  0.000000e+000  7.105427e-015  2.000000e+001
    endloop
  endfacet
  facet normal  0.000000e+000  1.000000e+000  -0.000000e+000
    outer loop
      vertex  4.000000e+001  6.000000e+001  2.000000e+001
      vertex  4.000000e+001  6.000000e+001 -4.000000e+001
      vertex  0.000000e+000  6.000000e+001  2.000000e+001
    endloop
  endfacet
  facet normal  0.000000e+000  1.000000e+000  0.000000e+000
    outer loop
      vertex  0.000000e+000  6.000000e+001  2.000000e+001
      vertex  4.000000e+001  6.000000e+001 -4.000000e+001
      vertex  0.000000e+000  6.000000e+001 -4.000000e+001
    endloop
  endfacet
  facet normal  0.000000e+000  0.000000e+000 -1.000000e+000
    outer loop
      vertex  0.000000e+000  4.000000e+001 -4.000000e+001
      vertex  0.000000e+000  6.000000e+001 -4.000000e+001
      vertex  4.000000e+001  4.000000e+001 -4.000000e+001
    endloop
  endfacet
  facet normal  0.000000e+000  0.000000e+000 -1.000000e+000
    outer loop
      vertex  4.000000e+001  4.000000e+001 -4.000000e+001
      vertex  0.000000e+000  6.000000e+001 -4.000000e+001
      vertex  4.000000e+001  6.000000e+001 -4.000000e+001
    endloop
  endfacet
  facet normal  0.000000e+000 -1.000000e+000  0.000000e+000
    outer loop
      vertex  0.000000e+000  4.000000e+001  0.000000e+000
      vertex  0.000000e+000  4.000000e+001 -4.000000e+001
      vertex  4.000000e+001  4.000000e+001  0.000000e+000
    endloop
  endfacet
  facet normal  0.000000e+000 -1.000000e+000  -0.000000e+000
    outer loop
      vertex  4.000000e+001  4.000000e+001  0.000000e+000
      vertex  0.000000e+000  4.000000e+001 -4.000000e+001
      vertex  4.000000e+001  4.000000e+001 -4.000000e+001
    endloop
  endfacet
  facet normal  0.000000e+000  0.000000e+000 -1.000000e+000
    outer loop
      vertex  0.000000e+000  0.000000e+000  0.000000e+000
      vertex  0.000000e+000  4.000000e+001  0.000000e+000
      vertex  4.000000e+001  0.000000e+000  0.000000e+000
    endloop
  endfacet
  facet normal  0.000000e+000  0.000000e+000 -1.000000e+000
    outer loop
      vertex  4.000000e+001  0.000000e+000  0.000000e+000
      vertex  0.000000e+000  4.000000e+001  0.000000e+000
      vertex  4.000000e+001  4.000000e+001  0.000000e+000
    endloop
  endfacet
endsolid CATIA STL
