solid CATIA STL
  facet normal  0.000000e+000  0.000000e+000  1.000000e+000
    outer loop
      vertex  2.654822e-001 -9.999965e+001  8.390997e+001
      vertex  1.279667e+001 -9.917785e+001  8.390997e+001
      vertex -1.226989e+001 -9.924439e+001  8.390997e+001
    endloop
  endfacet
  facet normal  0.000000e+000  0.000000e+000  1.000000e+000
    outer loop
      vertex -2.654822e-001  9.999965e+001  8.390997e+001
      vertex -1.279667e+001  9.917785e+001  8.390997e+001
      vertex  1.226989e+001  9.924439e+001  8.390997e+001
    endloop
  endfacet
  facet normal  0.000000e+000  0.000000e+000  9.999999e-001
    outer loop
      vertex  1.226989e+001  9.924439e+001  8.390997e+001
      vertex -1.279667e+001  9.917785e+001  8.390997e+001
      vertex -2.512604e+001  9.679195e+001  8.390997e+001
    endloop
  endfacet
  facet normal  0.000000e+000  0.000000e+000  1.000000e+000
    outer loop
      vertex  1.226989e+001  9.924439e+001  8.390997e+001
      vertex -2.512604e+001  9.679195e+001  8.390997e+001
      vertex  2.461176e+001  9.692400e+001  8.390997e+001
    endloop
  endfacet
  facet normal  0.000000e+000  0.000000e+000  1.000000e+000
    outer loop
      vertex  2.461176e+001  9.692400e+001  8.390997e+001
      vertex -2.512604e+001  9.679195e+001  8.390997e+001
      vertex -3.705917e+001  9.287959e+001  8.390997e+001
    endloop
  endfacet
  facet normal  0.000000e+000  0.000000e+000  1.000000e+000
    outer loop
      vertex  2.461176e+001  9.692400e+001  8.390997e+001
      vertex -3.705917e+001  9.287959e+001  8.390997e+001
      vertex  3.656549e+001  9.307505e+001  8.390997e+001
    endloop
  endfacet
  facet normal  0.000000e+000  0.000000e+000  1.000000e+000
    outer loop
      vertex  3.656549e+001  9.307505e+001  8.390997e+001
      vertex -3.705917e+001  9.287959e+001  8.390997e+001
      vertex -4.840784e+001  8.750246e+001  8.390997e+001
    endloop
  endfacet
  facet normal  0.000000e+000  0.000000e+000  1.000000e+000
    outer loop
      vertex  3.656549e+001  9.307505e+001  8.390997e+001
      vertex -4.840784e+001  8.750246e+001  8.390997e+001
      vertex  4.794255e+001  8.775826e+001  8.390997e+001
    endloop
  endfacet
  facet normal  0.000000e+000  0.000000e+000  1.000000e+000
    outer loop
      vertex  4.794255e+001  8.775826e+001  8.390997e+001
      vertex -4.840784e+001  8.750246e+001  8.390997e+001
      vertex -5.899310e+001  8.074537e+001  8.390997e+001
    endloop
  endfacet
  facet normal  0.000000e+000  0.000000e+000  9.999999e-001
    outer loop
      vertex  4.794255e+001  8.775826e+001  8.390997e+001
      vertex -5.899310e+001  8.074537e+001  8.390997e+001
      vertex  5.856354e+001  8.105746e+001  8.390997e+001
    endloop
  endfacet
  facet normal  0.000000e+000  0.000000e+000  9.999999e-001
    outer loop
      vertex  5.856354e+001  8.105746e+001  8.390997e+001
      vertex -5.899310e+001  8.074537e+001  8.390997e+001
      vertex -6.864799e+001  7.271487e+001  8.390997e+001
    endloop
  endfacet
  facet normal  0.000000e+000  0.000000e+000  1.000000e+000
    outer loop
      vertex  5.856354e+001  8.105746e+001  8.390997e+001
      vertex -6.864799e+001  7.271487e+001  8.390997e+001
      vertex  6.826094e+001  7.307834e+001  8.390997e+001
    endloop
  endfacet
  facet normal  0.000000e+000  0.000000e+000  1.000000e+000
    outer loop
      vertex  6.826094e+001  7.307834e+001  8.390997e+001
      vertex -6.864799e+001  7.271487e+001  8.390997e+001
      vertex -7.722028e+001  6.353762e+001  8.390997e+001
    endloop
  endfacet
  facet normal  0.000000e+000  0.000000e+000  1.000000e+000
    outer loop
      vertex  6.826094e+001  7.307834e+001  8.390997e+001
      vertex -7.722028e+001  6.353762e+001  8.390997e+001
      vertex  7.688183e+001  6.394673e+001  8.390997e+001
    endloop
  endfacet
  facet normal  0.000000e+000  0.000000e+000  1.000000e+000
    outer loop
      vertex  7.688183e+001  6.394673e+001  8.390997e+001
      vertex -7.722028e+001  6.353762e+001  8.390997e+001
      vertex -8.457475e+001  5.335834e+001  8.390997e+001
    endloop
  endfacet
  facet normal  0.000000e+000  0.000000e+000  1.000000e+000
    outer loop
      vertex  7.688183e+001  6.394673e+001  8.390997e+001
      vertex -8.457475e+001  5.335834e+001  8.390997e+001
      vertex  8.429025e+001  5.380664e+001  8.390997e+001
    endloop
  endfacet
  facet normal  0.000000e+000  0.000000e+000  1.000000e+000
    outer loop
      vertex  8.429025e+001  5.380664e+001  8.390997e+001
      vertex -8.457475e+001  5.335834e+001  8.390997e+001
      vertex -9.059542e+001  4.233756e+001  8.390997e+001
    endloop
  endfacet
  facet normal  0.000000e+000  0.000000e+000  1.000000e+000
    outer loop
      vertex  8.429025e+001  5.380664e+001  8.390997e+001
      vertex -9.059542e+001  4.233756e+001  8.390997e+001
      vertex  9.036935e+001  4.281799e+001  8.390997e+001
    endloop
  endfacet
  facet normal  0.000000e+000  0.000000e+000  1.000000e+000
    outer loop
      vertex  9.036935e+001  4.281799e+001  8.390997e+001
      vertex -9.059542e+001  4.233756e+001  8.390997e+001
      vertex -9.518736e+001  3.064910e+001  8.390997e+001
    endloop
  endfacet
  facet normal  0.000000e+000  0.000000e+000  1.000000e+000
    outer loop
      vertex  9.036935e+001  4.281799e+001  8.390997e+001
      vertex -9.518736e+001  3.064910e+001  8.390997e+001
      vertex  9.502328e+001  3.115408e+001  8.390997e+001
    endloop
  endfacet
  facet normal  0.000000e+000  0.000000e+000  1.000000e+000
    outer loop
      vertex  9.502328e+001  3.115408e+001  8.390997e+001
      vertex -9.518736e+001  3.064910e+001  8.390997e+001
      vertex -9.827812e+001  1.847729e+001  8.390997e+001
    endloop
  endfacet
  facet normal  0.000000e+000  0.000000e+000  9.999999e-001
    outer loop
      vertex  9.502328e+001  3.115408e+001  8.390997e+001
      vertex -9.827812e+001  1.847729e+001  8.390997e+001
      vertex  9.817863e+001  1.899885e+001  8.390997e+001
    endloop
  endfacet
  facet normal  0.000000e+000  0.000000e+000  1.000000e+000
    outer loop
      vertex  9.817863e+001  1.899885e+001  8.390997e+001
      vertex -9.827812e+001  1.847729e+001  8.390997e+001
      vertex -9.981899e+001  6.014071e+000  8.390997e+001
    endloop
  endfacet
  facet normal  0.000000e+000  0.000000e+000  1.000000e+000
    outer loop
      vertex  9.817863e+001  1.899885e+001  8.390997e+001
      vertex -9.981899e+001  6.014071e+000  8.390997e+001
      vertex  9.978565e+001  6.543988e+000  8.390997e+001
    endloop
  endfacet
  facet normal  0.000000e+000  0.000000e+000  1.000000e+000
    outer loop
      vertex  9.978565e+001  6.543988e+000  8.390997e+001
      vertex -9.981899e+001  6.014071e+000  8.390997e+001
      vertex -9.978565e+001 -6.543988e+000  8.390997e+001
    endloop
  endfacet
  facet normal  0.000000e+000  0.000000e+000  1.000000e+000
    outer loop
      vertex  9.978565e+001  6.543988e+000  8.390997e+001
      vertex -9.978565e+001 -6.543988e+000  8.390997e+001
      vertex  9.981899e+001 -6.014071e+000  8.390997e+001
    endloop
  endfacet
  facet normal  0.000000e+000  0.000000e+000  1.000000e+000
    outer loop
      vertex  9.981899e+001 -6.014071e+000  8.390997e+001
      vertex -9.978565e+001 -6.543988e+000  8.390997e+001
      vertex -9.817863e+001 -1.899885e+001  8.390997e+001
    endloop
  endfacet
  facet normal  0.000000e+000  0.000000e+000  1.000000e+000
    outer loop
      vertex  9.981899e+001 -6.014071e+000  8.390997e+001
      vertex -9.817863e+001 -1.899885e+001  8.390997e+001
      vertex  9.827812e+001 -1.847729e+001  8.390997e+001
    endloop
  endfacet
  facet normal  0.000000e+000  0.000000e+000  9.999999e-001
    outer loop
      vertex  9.827812e+001 -1.847729e+001  8.390997e+001
      vertex -9.817863e+001 -1.899885e+001  8.390997e+001
      vertex -9.502328e+001 -3.115408e+001  8.390997e+001
    endloop
  endfacet
  facet normal  0.000000e+000  0.000000e+000  1.000000e+000
    outer loop
      vertex  9.827812e+001 -1.847729e+001  8.390997e+001
      vertex -9.502328e+001 -3.115408e+001  8.390997e+001
      vertex  9.518736e+001 -3.064910e+001  8.390997e+001
    endloop
  endfacet
  facet normal  0.000000e+000  0.000000e+000  1.000000e+000
    outer loop
      vertex  9.518736e+001 -3.064910e+001  8.390997e+001
      vertex -9.502328e+001 -3.115408e+001  8.390997e+001
      vertex -9.036935e+001 -4.281799e+001  8.390997e+001
    endloop
  endfacet
  facet normal  0.000000e+000  0.000000e+000  1.000000e+000
    outer loop
      vertex  9.518736e+001 -3.064910e+001  8.390997e+001
      vertex -9.036935e+001 -4.281799e+001  8.390997e+001
      vertex  9.059542e+001 -4.233756e+001  8.390997e+001
    endloop
  endfacet
  facet normal  0.000000e+000  0.000000e+000  1.000000e+000
    outer loop
      vertex  9.059542e+001 -4.233756e+001  8.390997e+001
      vertex -9.036935e+001 -4.281799e+001  8.390997e+001
      vertex -8.429025e+001 -5.380664e+001  8.390997e+001
    endloop
  endfacet
  facet normal  0.000000e+000  0.000000e+000  1.000000e+000
    outer loop
      vertex  9.059542e+001 -4.233756e+001  8.390997e+001
      vertex -8.429025e+001 -5.380664e+001  8.390997e+001
      vertex  8.457475e+001 -5.335834e+001  8.390997e+001
    endloop
  endfacet
  facet normal  0.000000e+000  0.000000e+000  1.000000e+000
    outer loop
      vertex  8.457475e+001 -5.335834e+001  8.390997e+001
      vertex -8.429025e+001 -5.380664e+001  8.390997e+001
      vertex -7.688183e+001 -6.394673e+001  8.390997e+001
    endloop
  endfacet
  facet normal  0.000000e+000  0.000000e+000  1.000000e+000
    outer loop
      vertex  8.457475e+001 -5.335834e+001  8.390997e+001
      vertex -7.688183e+001 -6.394673e+001  8.390997e+001
      vertex  7.722028e+001 -6.353762e+001  8.390997e+001
    endloop
  endfacet
  facet normal  0.000000e+000  0.000000e+000  1.000000e+000
    outer loop
      vertex  7.722028e+001 -6.353762e+001  8.390997e+001
      vertex -7.688183e+001 -6.394673e+001  8.390997e+001
      vertex -6.826094e+001 -7.307834e+001  8.390997e+001
    endloop
  endfacet
  facet normal  0.000000e+000  0.000000e+000  1.000000e+000
    outer loop
      vertex  7.722028e+001 -6.353762e+001  8.390997e+001
      vertex -6.826094e+001 -7.307834e+001  8.390997e+001
      vertex  6.864799e+001 -7.271487e+001  8.390997e+001
    endloop
  endfacet
  facet normal  0.000000e+000  0.000000e+000  1.000000e+000
    outer loop
      vertex  6.864799e+001 -7.271487e+001  8.390997e+001
      vertex -6.826094e+001 -7.307834e+001  8.390997e+001
      vertex -5.856354e+001 -8.105746e+001  8.390997e+001
    endloop
  endfacet
  facet normal  0.000000e+000  0.000000e+000  9.999999e-001
    outer loop
      vertex  6.864799e+001 -7.271487e+001  8.390997e+001
      vertex -5.856354e+001 -8.105746e+001  8.390997e+001
      vertex  5.899310e+001 -8.074537e+001  8.390997e+001
    endloop
  endfacet
  facet normal  0.000000e+000  0.000000e+000  9.999999e-001
    outer loop
      vertex  5.899310e+001 -8.074537e+001  8.390997e+001
      vertex -5.856354e+001 -8.105746e+001  8.390997e+001
      vertex -4.794255e+001 -8.775826e+001  8.390997e+001
    endloop
  endfacet
  facet normal  0.000000e+000  0.000000e+000  1.000000e+000
    outer loop
      vertex  5.899310e+001 -8.074537e+001  8.390997e+001
      vertex -4.794255e+001 -8.775826e+001  8.390997e+001
      vertex  4.840784e+001 -8.750246e+001  8.390997e+001
    endloop
  endfacet
  facet normal  0.000000e+000  0.000000e+000  1.000000e+000
    outer loop
      vertex  4.840784e+001 -8.750246e+001  8.390997e+001
      vertex -4.794255e+001 -8.775826e+001  8.390997e+001
      vertex -3.656549e+001 -9.307505e+001  8.390997e+001
    endloop
  endfacet
  facet normal  0.000000e+000  0.000000e+000  1.000000e+000
    outer loop
      vertex  4.840784e+001 -8.750246e+001  8.390997e+001
      vertex -3.656549e+001 -9.307505e+001  8.390997e+001
      vertex  3.705917e+001 -9.287959e+001  8.390997e+001
    endloop
  endfacet
  facet normal  0.000000e+000  0.000000e+000  1.000000e+000
    outer loop
      vertex  3.705917e+001 -9.287959e+001  8.390997e+001
      vertex -3.656549e+001 -9.307505e+001  8.390997e+001
      vertex -2.461176e+001 -9.692400e+001  8.390997e+001
    endloop
  endfacet
  facet normal  0.000000e+000  0.000000e+000  1.000000e+000
    outer loop
      vertex  3.705917e+001 -9.287959e+001  8.390997e+001
      vertex -2.461176e+001 -9.692400e+001  8.390997e+001
      vertex  2.512604e+001 -9.679195e+001  8.390997e+001
    endloop
  endfacet
  facet normal  0.000000e+000  0.000000e+000  1.000000e+000
    outer loop
      vertex  2.512604e+001 -9.679195e+001  8.390997e+001
      vertex -2.461176e+001 -9.692400e+001  8.390997e+001
      vertex -1.226989e+001 -9.924439e+001  8.390997e+001
    endloop
  endfacet
  facet normal  0.000000e+000  0.000000e+000  9.999999e-001
    outer loop
      vertex  2.512604e+001 -9.679195e+001  8.390997e+001
      vertex -1.226989e+001 -9.924439e+001  8.390997e+001
      vertex  1.279667e+001 -9.917785e+001  8.390997e+001
    endloop
  endfacet
  facet normal -3.433781e-001 -5.442660e-001 -7.654188e-001
    outer loop
      vertex  0.000000e+000  0.000000e+000  0.000000e+000
      vertex -4.794255e+001 -8.775826e+001  8.390997e+001
      vertex -5.856354e+001 -8.105746e+001  8.390997e+001
    endloop
  endfacet
  facet normal -4.088854e-001 -4.969374e-001 -7.654188e-001
    outer loop
      vertex  0.000000e+000  0.000000e+000  0.000000e+000
      vertex -5.856354e+001 -8.105746e+001  8.390997e+001
      vertex -6.826094e+001 -7.307834e+001  8.390997e+001
    endloop
  endfacet
  facet normal -4.679438e-001 -4.417723e-001 -7.654188e-001
    outer loop
      vertex  0.000000e+000  0.000000e+000  0.000000e+000
      vertex -6.826094e+001 -7.307834e+001  8.390997e+001
      vertex -7.688183e+001 -6.394673e+001  8.390997e+001
    endloop
  endfacet
  facet normal -5.196226e-001 -3.796398e-001 -7.654188e-001
    outer loop
      vertex  0.000000e+000  0.000000e+000  0.000000e+000
      vertex -7.688183e+001 -6.394673e+001  8.390997e+001
      vertex -8.429025e+001 -5.380664e+001  8.390997e+001
    endloop
  endfacet
  facet normal -5.631070e-001 -3.115200e-001 -7.654188e-001
    outer loop
      vertex  0.000000e+000  0.000000e+000  0.000000e+000
      vertex -8.429025e+001 -5.380664e+001  8.390997e+001
      vertex -9.036935e+001 -4.281799e+001  8.390997e+001
    endloop
  endfacet
  facet normal -5.977103e-001 -2.384879e-001 -7.654188e-001
    outer loop
      vertex  0.000000e+000  0.000000e+000  0.000000e+000
      vertex -9.036935e+001 -4.281799e+001  8.390997e+001
      vertex -9.502328e+001 -3.115408e+001  8.390997e+001
    endloop
  endfacet
  facet normal -6.228876e-001 -1.616944e-001 -7.654188e-001
    outer loop
      vertex  0.000000e+000  0.000000e+000  0.000000e+000
      vertex -9.502328e+001 -3.115408e+001  8.390997e+001
      vertex -9.817863e+001 -1.899885e+001  8.390997e+001
    endloop
  endfacet
  facet normal -6.382416e-001 -8.235064e-002 -7.654188e-001
    outer loop
      vertex  0.000000e+000  0.000000e+000  0.000000e+000
      vertex -9.817863e+001 -1.899885e+001  8.390997e+001
      vertex -9.978565e+001 -6.543988e+000  8.390997e+001
    endloop
  endfacet
  facet normal -6.435302e-001 -1.708512e-003 -7.654188e-001
    outer loop
      vertex  0.000000e+000  0.000000e+000  0.000000e+000
      vertex -9.978565e+001 -6.543988e+000  8.390997e+001
      vertex -9.981899e+001  6.014071e+000  8.390997e+001
    endloop
  endfacet
  facet normal -6.386699e-001  7.896099e-002 -7.654188e-001
    outer loop
      vertex  0.000000e+000  0.000000e+000  0.000000e+000
      vertex -9.981899e+001  6.014071e+000  8.390997e+001
      vertex -9.827812e+001  1.847729e+001  8.390997e+001
    endloop
  endfacet
  facet normal -6.237375e-001  1.583845e-001 -7.654188e-001
    outer loop
      vertex  0.000000e+000  0.000000e+000  0.000000e+000
      vertex -9.827812e+001  1.847729e+001  8.390997e+001
      vertex -9.518736e+001  3.064910e+001  8.390997e+001
    endloop
  endfacet
  facet normal -5.989681e-001  2.353109e-001 -7.654188e-001
    outer loop
      vertex  0.000000e+000  0.000000e+000  0.000000e+000
      vertex -9.518736e+001  3.064910e+001  8.390997e+001
      vertex -9.059542e+001  4.233756e+001  8.390997e+001
    endloop
  endfacet
  facet normal -5.647529e-001  3.085259e-001 -7.654188e-001
    outer loop
      vertex  0.000000e+000  0.000000e+000  0.000000e+000
      vertex -9.059542e+001  4.233756e+001  8.390997e+001
      vertex -8.457475e+001  5.335834e+001  8.390997e+001
    endloop
  endfacet
  facet normal -5.216311e-001  3.768754e-001 -7.654188e-001
    outer loop
      vertex  0.000000e+000  0.000000e+000  0.000000e+000
      vertex -8.457475e+001  5.335834e+001  8.390997e+001
      vertex -7.722028e+001  6.353762e+001  8.390997e+001
    endloop
  endfacet
  facet normal -4.702829e-001  4.392813e-001 -7.654188e-001
    outer loop
      vertex  0.000000e+000  0.000000e+000  0.000000e+000
      vertex -7.722028e+001  6.353762e+001  8.390997e+001
      vertex -6.864799e+001  7.271487e+001  8.390997e+001
    endloop
  endfacet
  facet normal -4.115181e-001  4.947595e-001 -7.654188e-001
    outer loop
      vertex  0.000000e+000  0.000000e+000  0.000000e+000
      vertex -6.864799e+001  7.271487e+001  8.390997e+001
      vertex -5.899310e+001  8.074537e+001  8.390997e+001
    endloop
  endfacet
  facet normal -3.462632e-001  5.424351e-001 -7.654188e-001
    outer loop
      vertex  0.000000e+000  0.000000e+000  0.000000e+000
      vertex -5.899310e+001  8.074537e+001  8.390997e+001
      vertex -4.840784e+001  8.750246e+001  8.390997e+001
    endloop
  endfacet
  facet normal -2.755478e-001  5.815561e-001 -7.654188e-001
    outer loop
      vertex  0.000000e+000  0.000000e+000  0.000000e+000
      vertex -4.840784e+001  8.750246e+001  8.390997e+001
      vertex -3.705917e+001  9.287959e+001  8.390997e+001
    endloop
  endfacet
  facet normal -2.004866e-001  6.115056e-001 -7.654188e-001
    outer loop
      vertex  0.000000e+000  0.000000e+000  0.000000e+000
      vertex -3.705917e+001  9.287959e+001  8.390997e+001
      vertex -2.512604e+001  9.679195e+001  8.390997e+001
    endloop
  endfacet
  facet normal -1.222637e-001  6.318114e-001 -7.654188e-001
    outer loop
      vertex  0.000000e+000  0.000000e+000  0.000000e+000
      vertex -2.512604e+001  9.679195e+001  8.390997e+001
      vertex -1.279667e+001  9.917785e+001  8.390997e+001
    endloop
  endfacet
  facet normal -4.211266e-002  6.421531e-001 -7.654188e-001
    outer loop
      vertex  0.000000e+000  0.000000e+000  0.000000e+000
      vertex -1.279667e+001  9.917785e+001  8.390997e+001
      vertex -2.654822e-001  9.999965e+001  8.390997e+001
    endloop
  endfacet
  facet normal  3.870267e-002  6.423677e-001 -7.654188e-001
    outer loop
      vertex  0.000000e+000  0.000000e+000  0.000000e+000
      vertex -2.654822e-001  9.999965e+001  8.390997e+001
      vertex  1.226989e+001  9.924439e+001  8.390997e+001
    endloop
  endfacet
  facet normal  1.189073e-001  6.324517e-001 -7.654188e-001
    outer loop
      vertex  0.000000e+000  0.000000e+000  0.000000e+000
      vertex  1.226989e+001  9.924439e+001  8.390997e+001
      vertex  2.461176e+001  9.692400e+001  8.390997e+001
    endloop
  endfacet
  facet normal  1.972369e-001  6.125616e-001 -7.654188e-001
    outer loop
      vertex  0.000000e+000  0.000000e+000  0.000000e+000
      vertex  2.461176e+001  9.692400e+001  8.390997e+001
      vertex  3.656549e+001  9.307505e+001  8.390997e+001
    endloop
  endfacet
  facet normal  2.724560e-001  5.830110e-001 -7.654188e-001
    outer loop
      vertex  0.000000e+000  0.000000e+000  0.000000e+000
      vertex  3.656549e+001  9.307505e+001  8.390997e+001
      vertex  4.794255e+001  8.775826e+001  8.390997e+001
    endloop
  endfacet
  facet normal  3.433781e-001  5.442660e-001 -7.654188e-001
    outer loop
      vertex  0.000000e+000  0.000000e+000  0.000000e+000
      vertex  4.794255e+001  8.775826e+001  8.390997e+001
      vertex  5.856354e+001  8.105746e+001  8.390997e+001
    endloop
  endfacet
  facet normal  4.088854e-001  4.969374e-001 -7.654188e-001
    outer loop
      vertex  0.000000e+000  0.000000e+000  0.000000e+000
      vertex  5.856354e+001  8.105746e+001  8.390997e+001
      vertex  6.826094e+001  7.307834e+001  8.390997e+001
    endloop
  endfacet
  facet normal  4.679438e-001  4.417723e-001 -7.654188e-001
    outer loop
      vertex  0.000000e+000  0.000000e+000  0.000000e+000
      vertex  6.826094e+001  7.307834e+001  8.390997e+001
      vertex  7.688183e+001  6.394673e+001  8.390997e+001
    endloop
  endfacet
  facet normal  5.196226e-001  3.796398e-001 -7.654188e-001
    outer loop
      vertex  0.000000e+000  0.000000e+000  0.000000e+000
      vertex  7.688183e+001  6.394673e+001  8.390997e+001
      vertex  8.429025e+001  5.380664e+001  8.390997e+001
    endloop
  endfacet
  facet normal  5.631070e-001  3.115200e-001 -7.654188e-001
    outer loop
      vertex  0.000000e+000  0.000000e+000  0.000000e+000
      vertex  8.429025e+001  5.380664e+001  8.390997e+001
      vertex  9.036935e+001  4.281799e+001  8.390997e+001
    endloop
  endfacet
  facet normal  5.977103e-001  2.384879e-001 -7.654188e-001
    outer loop
      vertex  0.000000e+000  0.000000e+000  0.000000e+000
      vertex  9.036935e+001  4.281799e+001  8.390997e+001
      vertex  9.502328e+001  3.115408e+001  8.390997e+001
    endloop
  endfacet
  facet normal  6.228876e-001  1.616944e-001 -7.654188e-001
    outer loop
      vertex  0.000000e+000  0.000000e+000  0.000000e+000
      vertex  9.502328e+001  3.115408e+001  8.390997e+001
      vertex  9.817863e+001  1.899885e+001  8.390997e+001
    endloop
  endfacet
  facet normal  6.382416e-001  8.235064e-002 -7.654188e-001
    outer loop
      vertex  0.000000e+000  0.000000e+000  0.000000e+000
      vertex  9.817863e+001  1.899885e+001  8.390997e+001
      vertex  9.978565e+001  6.543988e+000  8.390997e+001
    endloop
  endfacet
  facet normal  6.435302e-001  1.708512e-003 -7.654188e-001
    outer loop
      vertex  0.000000e+000  0.000000e+000  0.000000e+000
      vertex  9.978565e+001  6.543988e+000  8.390997e+001
      vertex  9.981899e+001 -6.014071e+000  8.390997e+001
    endloop
  endfacet
  facet normal  6.386699e-001 -7.896099e-002 -7.654188e-001
    outer loop
      vertex  0.000000e+000  0.000000e+000  0.000000e+000
      vertex  9.981899e+001 -6.014071e+000  8.390997e+001
      vertex  9.827812e+001 -1.847729e+001  8.390997e+001
    endloop
  endfacet
  facet normal  6.237375e-001 -1.583845e-001 -7.654188e-001
    outer loop
      vertex  0.000000e+000  0.000000e+000  0.000000e+000
      vertex  9.827812e+001 -1.847729e+001  8.390997e+001
      vertex  9.518736e+001 -3.064910e+001  8.390997e+001
    endloop
  endfacet
  facet normal  5.989681e-001 -2.353109e-001 -7.654188e-001
    outer loop
      vertex  0.000000e+000  0.000000e+000  0.000000e+000
      vertex  9.518736e+001 -3.064910e+001  8.390997e+001
      vertex  9.059542e+001 -4.233756e+001  8.390997e+001
    endloop
  endfacet
  facet normal  5.647529e-001 -3.085259e-001 -7.654188e-001
    outer loop
      vertex  0.000000e+000  0.000000e+000  0.000000e+000
      vertex  9.059542e+001 -4.233756e+001  8.390997e+001
      vertex  8.457475e+001 -5.335834e+001  8.390997e+001
    endloop
  endfacet
  facet normal  5.216311e-001 -3.768754e-001 -7.654188e-001
    outer loop
      vertex  0.000000e+000  0.000000e+000  0.000000e+000
      vertex  8.457475e+001 -5.335834e+001  8.390997e+001
      vertex  7.722028e+001 -6.353762e+001  8.390997e+001
    endloop
  endfacet
  facet normal  4.702829e-001 -4.392813e-001 -7.654188e-001
    outer loop
      vertex  0.000000e+000  0.000000e+000  0.000000e+000
      vertex  7.722028e+001 -6.353762e+001  8.390997e+001
      vertex  6.864799e+001 -7.271487e+001  8.390997e+001
    endloop
  endfacet
  facet normal  4.115181e-001 -4.947595e-001 -7.654188e-001
    outer loop
      vertex  0.000000e+000  0.000000e+000  0.000000e+000
      vertex  6.864799e+001 -7.271487e+001  8.390997e+001
      vertex  5.899310e+001 -8.074537e+001  8.390997e+001
    endloop
  endfacet
  facet normal  3.462632e-001 -5.424351e-001 -7.654188e-001
    outer loop
      vertex  0.000000e+000  0.000000e+000  0.000000e+000
      vertex  5.899310e+001 -8.074537e+001  8.390997e+001
      vertex  4.840784e+001 -8.750246e+001  8.390997e+001
    endloop
  endfacet
  facet normal  2.755478e-001 -5.815561e-001 -7.654188e-001
    outer loop
      vertex  0.000000e+000  0.000000e+000  0.000000e+000
      vertex  4.840784e+001 -8.750246e+001  8.390997e+001
      vertex  3.705917e+001 -9.287959e+001  8.390997e+001
    endloop
  endfacet
  facet normal  2.004866e-001 -6.115056e-001 -7.654188e-001
    outer loop
      vertex  0.000000e+000  0.000000e+000  0.000000e+000
      vertex  3.705917e+001 -9.287959e+001  8.390997e+001
      vertex  2.512604e+001 -9.679195e+001  8.390997e+001
    endloop
  endfacet
  facet normal  1.222637e-001 -6.318114e-001 -7.654188e-001
    outer loop
      vertex  0.000000e+000  0.000000e+000  0.000000e+000
      vertex  2.512604e+001 -9.679195e+001  8.390997e+001
      vertex  1.279667e+001 -9.917785e+001  8.390997e+001
    endloop
  endfacet
  facet normal  4.211266e-002 -6.421531e-001 -7.654188e-001
    outer loop
      vertex  0.000000e+000  0.000000e+000  0.000000e+000
      vertex  1.279667e+001 -9.917785e+001  8.390997e+001
      vertex  2.654822e-001 -9.999965e+001  8.390997e+001
    endloop
  endfacet
  facet normal -3.870267e-002 -6.423677e-001 -7.654188e-001
    outer loop
      vertex  0.000000e+000  0.000000e+000  0.000000e+000
      vertex  2.654822e-001 -9.999965e+001  8.390997e+001
      vertex -1.226989e+001 -9.924439e+001  8.390997e+001
    endloop
  endfacet
  facet normal -1.189073e-001 -6.324517e-001 -7.654188e-001
    outer loop
      vertex  0.000000e+000  0.000000e+000  0.000000e+000
      vertex -1.226989e+001 -9.924439e+001  8.390997e+001
      vertex -2.461176e+001 -9.692400e+001  8.390997e+001
    endloop
  endfacet
  facet normal -1.972369e-001 -6.125616e-001 -7.654188e-001
    outer loop
      vertex  0.000000e+000  0.000000e+000  0.000000e+000
      vertex -2.461176e+001 -9.692400e+001  8.390997e+001
      vertex -3.656549e+001 -9.307505e+001  8.390997e+001
    endloop
  endfacet
  facet normal -2.724560e-001 -5.830110e-001 -7.654188e-001
    outer loop
      vertex  0.000000e+000  0.000000e+000  0.000000e+000
      vertex -3.656549e+001 -9.307505e+001  8.390997e+001
      vertex -4.794255e+001 -8.775826e+001  8.390997e+001
    endloop
  endfacet
endsolid CATIA STL
